<svg fill='#efefef' height='80px' id="i" xmlns="http://www.w3.org/2000/svg" viewBox="0 0 37.01 170.82">
  <path class="cls-1" d="M675.68,590.57h-37c1.84-42.35,3.66-84.36,5.49-126.46h26C672,506.22,673.83,548.09,675.68,590.57Zm-16.46-65.06c0-13.35.07-26.69-.09-40,0-1.61-1.3-3.18-2-4.77-.66,1.62-1.88,3.23-1.89,4.85q-.18,40,0,80.08c0,1.69,1.13,3.39,1.73,5.08.76-1.72,2.14-3.44,2.16-5.18C659.3,552.2,659.22,538.86,659.22,525.51Z" transform="translate(-638.67 -419.75)"/>
  <path class="cls-1" d="M641.43,450.51V419.75H673v30.76ZM657.32,432l-7.06,3c2.41.79,4.81,2.18,7.23,2.21,2.26,0,4.54-1.37,6.81-2.15Z" transform="translate(-638.67 -419.75)"/>
</svg>