<svg height='80px' id="_" data-name="!" xmlns="http://www.w3.org/2000/svg" viewBox="0 0 37.01 170.82" fill='#efefef'>
  <path class="cls-1" d="M1447,563.9h-26c-1.83-42.1-3.65-84.12-5.49-126.46h37C1450.62,479.92,1448.8,521.79,1447,563.9Zm-11.06-101.44c0-1.74-1.41-3.45-2.16-5.17-.6,1.69-1.72,3.38-1.73,5.08q-.16,40,0,80.07c0,1.63,1.23,3.24,1.89,4.86.69-1.59,2-3.16,2-4.77.17-13.34.1-26.69.1-40S1436.09,475.81,1435.91,462.46Z" transform="translate(-1415.46 -437.44)"/>
  <path class="cls-1" d="M1449.76,577.5v30.76h-31.54V577.5ZM1441.09,593c-2.28-.77-4.55-2.17-6.82-2.14s-4.81,1.42-7.22,2.21l7,3Z" transform="translate(-1415.46 -437.44)"/>
</svg>