<svg height='50px' fill='white' id="nsta-fame" xmlns="http://www.w3.org/2000/svg" viewBox="0 0 710.2 103.98">
  <path class="cls-1" d="M1330.51,463.87v99.71h-31.34V530l-1.29-.56-19.38,28.44-20.35-29.66v35.36h-31.74V463.89c8.12,0,16.23-.15,24.32.15,1.35,0,3,1.84,3.89,3.2,7.85,11.37,15.58,22.83,23.74,34.84,1.16-1.56,2.15-2.76,3-4.05,6.91-10.21,13.86-20.4,20.64-30.69,1.62-2.46,3.32-3.65,6.42-3.55C1315.58,464,1322.75,463.87,1330.51,463.87Zm-85.69,21.18,1.12-.41L1278.5,532l32.33-47.21,1,.28v17.73c0,15,0,30,0,45,0,4.08.07,4.08,3.79,3.38V476.26l-1.09-1.11c-1.63,1.34-3.69,2.39-4.84,4.06-9.47,13.72-18.76,27.55-28.11,41.33-1,1.41-2,2.75-3.24,4.4-10.71-15.73-21-30.86-31.32-46-1.47-2.18-2.82-4.19-6.16-2.31,0,24.08,0,48.24.11,72.41,0,1.1,1.61,2.2,2.47,3.3l1.35-.89Z" transform="translate(-691.28 -461.84)"/>
  <path class="cls-1" d="M691.28,463.88c8.08,0,15.74-.17,23.38.13,1.58.06,3.54,1.53,4.56,2.92,8.26,11.26,16.33,22.66,25.36,35.27V464.14h31.15V563.9c-8.32,0-16.59.13-24.85-.15-1.2,0-2.56-1.88-3.48-3.15-8-11.06-15.91-22.19-24.79-34.6v37.55H691.28Zm15,11.24-1.53,1.29v48c0,8,0,16,0,24,0,2.57.39,4.38,4,2.94V483.1c1.73,2.21,2.76,3.43,3.69,4.73,14.54,20.34,29,40.73,43.66,61,1.16,1.61,3.28,2.52,5.85,4.4.19-3,.32-4.16.32-5.32,0-22.52.06-45-.09-67.57,0-1.5-1.43-3-2.19-4.47-.58,1.49-1.66,3-1.67,4.48-.12,19.18-.08,38.37-.08,57.56v5.26a12.35,12.35,0,0,1-4.24-4c-14.24-19.95-28.43-39.93-42.75-59.81C710,477.65,707.94,476.52,706.26,475.12Z" transform="translate(-691.28 -461.84)"/>
  <path class="cls-1" d="M1342.41,464.07h58.12v25.86h-26.31v10.9h25.94v25h-25.91v11.8h27.23v26h-59.07Zm19.1,84.15V515.53c8.43,0,16.26.1,24.07-.08,1.36,0,2.69-1.24,4-1.9l-.63-1.83h-27.74V479.5c8.82,0,17.29.09,25.76-.09,1.38,0,2.74-1.26,4.11-1.93l-.73-1.27h-33.2v75.5h33.45l.57-1.61c-1.48-.63-2.94-1.77-4.43-1.8C1378.33,548.13,1369.89,548.22,1361.51,548.22Z" transform="translate(-691.28 -461.84)"/>
  <path class="cls-1" d="M837.11,490.84a116.6,116.6,0,0,0-11.67.12,6.36,6.36,0,0,0-4.29,2.65c-.41.71,1,3,2.1,4,3.9,3.63,8.17,6.86,12,10.53,6.83,6.51,11.45,14.33,12.24,23.91,1.53,18.41-9.8,32.52-28.29,33.64-10.33.63-20.82-1.05-31.22-2-1.3-.12-3.48-2-3.52-3.07-.29-9-.16-17.93-.16-26.9,7.15.82,13.83,1.71,20.54,2.32,3,.27,6.83.18,7.24-3.5.24-2.2-1.66-5.18-3.46-6.95-3.66-3.6-8-6.5-11.88-9.9-5.74-5-10.35-10.92-12-18.55-4-18.49,7.14-33.7,26.35-35.15,7.56-.57,15.26.45,22.87,1,1.11.09,3,1.84,3,2.87C837.22,474.05,837.11,482.2,837.11,490.84ZM824,479.76l1.15-1.24c-.91-.91-1.79-2.54-2.75-2.59-3.79-.19-7.74-.46-11.41.32-11.39,2.43-15.82,13.25-9.34,23.07,2.81,4.25,6.68,7.82,10.23,11.54,4.36,4.57,9.45,8.56,13.22,13.56,7.94,10.52,2.65,22.29-10.42,23.56-5.72.56-11.54.09-18.64.09,1.37,1.33,2.33,3.1,3.45,3.21,5.28.5,10.66,1.16,15.89.63,15.69-1.58,22.45-16.6,13.12-29.29-3.51-4.78-8.28-8.62-12.38-13-3.86-4.1-8.24-7.92-11.26-12.59-5.23-8.08-.8-16.4,8.73-17.24C817.07,479.51,820.57,479.76,824,479.76Z" transform="translate(-691.28 -461.84)"/>
  <path class="cls-1" d="M1065.37,464.07h58.11v25.87h-26.32v10.91h26v25H1097v37.75h-31.67Zm47.42,49.62-.57-2h-28V479.5c8.87,0,17.34.08,25.81-.1,1.31,0,2.59-1.25,3.89-1.93l-.69-1.24h-33.4c0,24.55,0,48.68.11,72.81,0,1.1,1.64,2.19,2.52,3.28l1.46-.92V515.54h5.82c6.32,0,12.65.1,19-.09C1110.1,515.41,1111.44,514.3,1112.79,513.69Z" transform="translate(-691.28 -461.84)"/>
  <path class="cls-1" d="M918.46,464.25V489.8H900.2v73.79h-33V489.91H849V464.25Zm-36.94,87.21c4.34,1.39,4.16-1.08,4.16-3.52q0-31.29,0-62.57v-5.88c6.38,0,12.18.12,18-.1,1.19-.05,2.33-1.39,3.5-2.14l-.82-1.15H860.4a21.06,21.06,0,0,0,0,2.13c6.92.7,13.85,1.3,21.11,1.95Z" transform="translate(-691.28 -461.84)"/>
  <path class="cls-1" d="M1224.15,563.92c-9.8,0-19.28.17-28.74-.19-1.31-.05-3.12-2.48-3.66-4.15-1.15-3.52-2.91-5-6.78-4.75a202.36,202.36,0,0,1-20.46,0c-3.8-.19-6.06.87-6.72,4.68-.62,3.58-2.62,4.64-6.24,4.52-8.63-.29-17.29-.1-26.48-.1.72-2.21,1.23-4.07,1.91-5.86,11.29-29.86,22.67-59.7,33.85-89.61,1.31-3.49,3-5,6.79-4.68a131.16,131.16,0,0,0,15,0c2.86-.11,4.38.65,5.47,3.57,11.61,31,23.4,61.92,35.12,92.88C1223.58,561.32,1223.77,562.46,1224.15,563.92ZM1206,551.48a4.51,4.51,0,0,0-.12-1c-9.07-24-18.12-48-27.35-71.9a5,5,0,0,0-3.88-2.55,5.11,5.11,0,0,0-3.82,2.64c-3.57,8.79-6.83,17.7-10.21,26.58q-8.76,23.07-17.55,46.15c3.37,1.59,4.71-.13,5.27-2.72.75-3.47,2.83-4.22,6.14-4.17q20.25.25,40.5,0c3.38,0,5.32.86,6.07,4.26C1201.61,551.34,1203,553,1206,551.48Z" transform="translate(-691.28 -461.84)"/>
  <path class="cls-1" d="M977.62,463.87l37.92,100c-10.29,0-19.89.16-29.47-.21-1.25,0-3-2.68-3.48-4.41-1-3.49-2.86-4.61-6.46-4.46-7,.29-14,.29-21,0-3.58-.15-5.78.84-6.34,4.48-.59,3.92-2.85,4.83-6.61,4.71-8.59-.3-17.2-.1-26.46-.1,4.71-12.41,9.19-24.2,13.65-36,7.54-19.91,15.15-39.79,22.49-59.77,1.26-3.43,3-4.53,6.49-4.38C964.69,464.08,971,463.87,977.62,463.87Zm-43.51,87.32,1.52,1.42c1.26-1.38,3.14-2.57,3.66-4.19,1-3.16,2.78-3.94,5.87-3.91,13.5.14,27,.18,40.5,0,3.55,0,5.66.85,6.42,4.47.57,2.75,2.14,3.86,5.15,2.38-9.29-24.48-18.46-48.77-27.84-73-.46-1.19-2.62-2.3-4-2.36a4.57,4.57,0,0,0-3.51,2.39C952.5,502.62,943.32,526.91,934.11,551.19Z" transform="translate(-691.28 -461.84)"/>
  <path class="cls-1" d="M1055.67,501.84V526H1017V501.84Zm-19,10.22c-2.83,0-5.67-.13-8.48.08-.88.06-1.7,1-2.54,1.58.72.67,1.42,1.91,2.16,1.93,5.65.16,11.32.16,17,0,.79,0,1.56-1.18,2.33-1.82-.81-.59-1.6-1.62-2.46-1.7C1042.06,511.92,1039.38,512.06,1036.72,512.06Z" transform="translate(-691.28 -461.84)"/>
  <path class="cls-1" d="M1174.68,479.57l23.26,61.05h-46.52C1159.07,520.54,1166.59,500.79,1174.68,479.57Zm.59,37.28-1.24,0-6,15.85h13.39Z" transform="translate(-691.28 -461.84)"/>
  <path class="cls-1" d="M966.22,481.09c7.49,19.64,15,39.29,22.64,59.41H942.45c7.57-19.92,15.08-39.66,22.58-59.4Zm6.16,51.68c-2.25-5.84-4.23-11-6.75-17.47-2.58,6.73-4.57,11.89-6.71,17.47Z" transform="translate(-691.28 -461.84)"/>
</svg>